<?xml version="1.0" encoding="utf-8"?>
<!-- Generator: Adobe Illustrator 21.1.0, SVG Export Plug-In . SVG Version: 6.00 Build 0)  -->
<svg version="1.1" id="圖層_1" xmlns="http://www.w3.org/2000/svg" xmlns:xlink="http://www.w3.org/1999/xlink" x="0px" y="0px"
	 viewBox="0 0 243 243" style="enable-background:new 0 0 243 243;" xml:space="preserve">
<style type="text/css">
	.st0{fill:#FFFFFB;}
</style>
<g>
	<path class="st0" d="M81.9,232.4c-3,0-6,0-9,0c-2.6-0.6-5.2-1.4-7.9-1.8c-29.1-3.8-47.6-21-53.4-50c-1.1-5.4-1.8-10.8-2.7-16.2
		c0-5.7,0-11.3,0-17c0.3-1,1-2,1-3c0.1-16.3,0.1-32.6,0-48.9c0-1-0.6-2-1-3c0-5.7,0-11.3,0-17c0.6-3.5,1.4-6.9,1.8-10.4
		C14,33.5,35,12.5,66.5,9.2c4.2-0.4,8.3-1.2,12.4-1.8c5,0,10,0,15,0c1,0.3,2,1,3,1c16.3,0.1,32.6,0.1,48.9,0c1,0,2-0.6,3-1
		c5,0,10,0,15,0c4.3,0.6,8.6,1.4,12.9,1.8c28.6,2.9,48.3,20.6,54.4,48.9c1,4.7,1.8,9.5,2.7,14.2c0,2.7,0,5.3,0,8s0,5.3,0,8
		c0,4,0,8,0,12c-0.3,0.4-0.8,0.8-0.8,1.2c0,12.5,0,25.1,0,37.6c0,0.4,0.5,0.8,0.8,1.2c0,3.3,0,6.7,0,10c-0.3,1.7-0.6,3.4-0.9,5
		c0,1,0,2,0,3c0.3,2,0.6,4,0.8,6c0,1.7,0,3.3,0,5c-0.6,2.6-1.5,5.2-1.8,7.9c-3.2,26.9-21.2,46.7-47.9,52.3
		c-5.1,1.1-10.1,1.9-15.2,2.9c-1,0-2,0-3,0c-2-0.3-4-0.6-6-0.8c-1,0-2,0-3,0c-1.7,0.3-3.4,0.6-5,0.9c-4,0-8,0-12,0
		c-0.9-0.3-1.8-0.9-2.7-1c-10.9-0.1-21.8-0.1-32.7,0c-0.9,0-1.8,0.6-2.7,1c-4,0-8,0-12,0C87.2,232.4,84.6,232.4,81.9,232.4z
		 M212.9,120c0.3,0,0.5,0,0.8,0c0-11,0.3-22-0.1-33c-0.3-8.5-0.5-17.1-2.1-25.3c-4-20.7-18.7-32.6-42-33c-32-0.7-63.9-0.5-95.9,0
		c-14,0.2-26.8,4.7-35.5,17c-5.5,7.9-7.9,17-7.9,26.3c-0.3,32-0.7,63.9,0,95.9c0.6,26.6,16.8,42.9,42.3,43.3
		c32.6,0.5,65.3,0.5,97.9,0c25.1-0.4,41.7-17.1,42.3-42.3C213.2,152.7,212.9,136.3,212.9,120z"/>
	<path class="st0" d="M148.9,7.4c-1,0.3-2,1-3,1c-16.3,0.1-32.6,0.1-48.9,0c-1,0-2-0.6-3-1C112.2,7.4,130.6,7.4,148.9,7.4z"/>
	<path class="st0" d="M8.9,92.4c0.3,1,1,2,1,3c0.1,16.3,0.1,32.6,0,48.9c0,1-0.6,2-1,3C8.9,129.1,8.9,110.7,8.9,92.4z"/>
	<path class="st0" d="M233.9,140.4c-0.3-0.4-0.8-0.8-0.8-1.2c0-12.5,0-25.1,0-37.6c0-0.4,0.5-0.8,0.8-1.2
		C233.9,113.7,233.9,127.1,233.9,140.4z"/>
	<path class="st0" d="M101.9,232.4c0.9-0.3,1.8-0.9,2.7-1c10.9-0.1,21.8-0.1,32.7,0c0.9,0,1.8,0.6,2.7,1
		C127.2,232.4,114.6,232.4,101.9,232.4z"/>
	<path class="st0" d="M233.9,88.4c0-2.7,0-5.3,0-8C233.9,83.1,233.9,85.7,233.9,88.4z"/>
	<path class="st0" d="M81.9,232.4c2.7,0,5.3,0,8,0C87.2,232.4,84.6,232.4,81.9,232.4z"/>
	<path class="st0" d="M233.9,164.4c-0.3-2-0.6-4-0.8-6c0.3,0,0.6,0,0.8,0C233.9,160.4,233.9,162.4,233.9,164.4z"/>
	<path class="st0" d="M160,231.6c2,0.3,4,0.6,6,0.8c-2,0-4,0-6,0C159.9,232.1,159.9,231.8,160,231.6z"/>
	<path class="st0" d="M233,155.4c0.3-1.7,0.6-3.4,0.9-5c0,1.7,0,3.3,0,5C233.6,155.4,233.3,155.4,233,155.4z"/>
	<path class="st0" d="M151.9,232.4c1.7-0.3,3.4-0.6,5-0.9c0,0.3,0,0.6,0,0.9C155.2,232.4,153.6,232.4,151.9,232.4z"/>
	<path class="st0" d="M233,155.4c0.3,0,0.6,0,0.9,0c0,1,0,2,0,3c-0.3,0-0.6,0-0.8,0C233.1,157.4,233.1,156.4,233,155.4z"/>
	<path class="st0" d="M156.9,232.4c0-0.3,0-0.6,0-0.9c1,0,2,0,3,0c0,0.3,0,0.6,0,0.8C158.9,232.4,157.9,232.4,156.9,232.4z"/>
	<path class="st0" d="M100.3,197.4c0-25.7,0-51.1,0-76.9c-5.5,0-10.2,0-15.3,0c0-8.8,0-17.2,0-26.4c4.9,0,9.7,0,15.8,0
		c0-8.4-0.3-16,0.1-23.6c0.6-14.4,9.8-24,24-25.1c9.8-0.8,19.6-0.9,29.7-1.4c0,9.3,0,18.1,0,27.5c-5.3,0-10.7,0-16.1,0
		c-4.5-0.1-6.8,2-6.7,6.6c0.1,5.1,0,10.2,0,16.1c7.7,0,15.1,0,23.2,0c-0.8,8.9-1.5,16.9-2.2,25.7c-6.9,0-13.6,0-20.9,0
		c-0.2,2.7-0.5,4.6-0.5,6.5c0,21.8-0.1,43.6,0.1,65.5c0,4.3-1,5.9-5.5,5.7C117.7,197.1,109.4,197.4,100.3,197.4z"/>
</g>
</svg>
