<?xml version="1.0" encoding="utf-8"?>
<!-- Generator: Adobe Illustrator 21.1.0, SVG Export Plug-In . SVG Version: 6.00 Build 0)  -->
<svg version="1.1" id="圖層_1" xmlns="http://www.w3.org/2000/svg" xmlns:xlink="http://www.w3.org/1999/xlink" x="0px" y="0px"
	 viewBox="0 0 231.3 231.3" style="enable-background:new 0 0 231.3 231.3;" xml:space="preserve">
<style type="text/css">
	.st0{fill:#FFFFFB;}
</style>
<g>
	<path class="st0" d="M171.3,227.7c-37.7,0-75.3,0-113,0c-1.6-0.6-3.1-1.4-4.8-1.9c-25.3-6.9-41.5-23-48.3-48.3
		c-0.4-1.6-1.3-3.2-1.9-4.8c0-38.3,0-76.7,0-115c0.6-1.4,1.4-2.8,1.8-4.3c5.8-23.1,19.9-38.7,42.3-47c3.9-1.4,8-2.5,11.9-3.8
		c37.3,0,74.7,0,112,0c0.3,0.3,0.6,0.8,1,0.9c26.1,4.2,43.3,19.1,52.5,43.6c1.4,3.7,2.4,7.6,3.6,11.5c0,38,0,76,0,114
		c-0.6,1.4-1.4,2.8-1.8,4.3c-6.4,24.9-22.1,40.8-46.5,48.4C177.2,226.2,174.2,226.9,171.3,227.7z M211.2,115.5c0-15.3,0-30.6,0-46
		c-0.1-28.7-21-49.7-49.7-49.7c-30.5,0-61,0-91.4,0c-28.4,0-49.5,21-49.6,49.3c-0.1,30.6-0.1,61.3,0,91.9
		c0,28.4,21.1,49.4,49.5,49.5c30.6,0,61.3,0,91.9,0c28.1,0,49.2-21.1,49.3-49.1C211.3,146.1,211.2,130.8,211.2,115.5z"/>
	<path class="st0" d="M176.3,115.1c0,33.4-27.2,60.6-60.6,60.6c-33.3,0-60.5-27.3-60.4-60.7c0-33.3,27.3-60.3,60.8-60.3
		C149.2,54.7,176.3,82,176.3,115.1z M159.2,115.3c0-23.9-19.4-43.5-43.3-43.5c-24,0-43.5,19.4-43.5,43.3c0,23.9,19.4,43.5,43.3,43.5
		C139.7,158.6,159.2,139.2,159.2,115.3z"/>
	<path class="st0" d="M193.5,50.6c-0.2,7.3-5.8,12.6-13.3,12.4c-7.1-0.2-12.4-5.7-12.3-12.9c0.1-7.3,5.7-12.7,13.1-12.6
		C188.3,37.6,193.7,43.3,193.5,50.6z"/>
</g>
</svg>
